# xmcd CD database file generated by Grip 3.2.0
# 
# Track frame offsets:
#       150
#       32945
#       46960
#       64987
#       83822
#       101750
#       120085
#       137640
#       157237
#       176717
#       195970
#       216715
#       235532
# 
# Disc length: 3756 seconds
# 
# Revision: 5
# Processed by: cddbd v1.5.1PL2 Copyright (c) Steve Scherf et al.
# Submitted via: Grip 3.2.0
# 
DISCID=b50eaa0d
DTITLE=Albert King (1924-1992) - Best of Albert King Vol. 1 (1968-1973)
DYEAR=1986
DGENRE=Blues
TTITLE0=I'll Play the Blues For You (Parts 1 and 2)
TTITLE1=Killing Floor
TTITLE2=Honky Tonk Woman
TTITLE3=Sky Is Crying
TTITLE4=Breaking Up Somebody's Home
TTITLE5=Hound Dog
TTITLE6=That's What The Blues Is All About
TTITLE7=Angel Of Mercy
TTITLE8=Everybody Wants To Go To Heaven
TTITLE9=Can't You See What You're Doing To Me
TTITLE10=Answer To The Laundromat Blues
TTITLE11=I Wanna Get Funky
TTITLE12=Blues Power
EXTD=
EXTT0=
EXTT1=
EXTT2=
EXTT3=
EXTT4=
EXTT5=
EXTT6=
EXTT7=
EXTT8=
EXTT9=
EXTT10=
EXTT11=
EXTT12=
PLAYORDER=
